<?xml version="1.0" encoding="utf-8"?>
<svg width="22px" height="22px" viewBox="0 0 22 22" version="1.1" xmlns:xlink="http://www.w3.org/1999/xlink" xmlns="http://www.w3.org/2000/svg">
  <defs>
    <path d="M0 0L22 0L22 22L0 22L0 0Z" id="path_1" />
    <clipPath id="mask_1">
      <use xlink:href="#path_1" />
    </clipPath>
  </defs>
  <g id="Group-Copy-7">
    <g id="Group-18">
      <g id="chatting">
        <path d="M0 0L22 0L22 22L0 22L0 0Z" id="Background" fill="none" fill-rule="evenodd" stroke="none" />
        <g clip-path="url(#mask_1)">
          <g id="Group" transform="translate(0 1.3587189)">
            <path d="M15.2122 0L2.48789 0C1.1159 0 0 1.1159 0 2.48789L0 13.6383C0 14.1664 0.597223 14.4641 1.01879 14.1629L4.56242 11.6346C4.85977 11.4228 5.20953 11.3107 5.57477 11.3107L13.3689 11.3107C14.7409 11.3107 15.8568 10.1948 15.8568 8.82277L15.8568 0.644531C15.8568 0.28875 15.568 -2.45869e-07 15.2122 -2.45869e-07L15.2122 0ZM12.0815 7.80789L4.63458 7.80789C4.2788 7.80789 3.99005 7.51957 3.99005 7.16336C3.99005 6.80758 4.2788 6.51883 4.63458 6.51883L12.0815 6.51883C12.4373 6.51883 12.726 6.80758 12.726 7.16336C12.726 7.51957 12.4373 7.80789 12.0815 7.80789L12.0815 7.80789ZM12.0815 4.80008L4.63458 4.80008C4.2788 4.80008 3.99005 4.51176 3.99005 4.15555C3.99005 3.79977 4.2788 3.51102 4.63458 3.51102L12.0815 3.51102C12.4373 3.51102 12.726 3.79977 12.726 4.15555C12.726 4.51176 12.4373 4.80008 12.0815 4.80008L12.0815 4.80008Z" id="Shape" fill="#36AE46" fill-rule="evenodd" stroke="none" />
            <path d="M21.9999 7.4873L21.9999 18.6373C21.9999 19.1618 21.4057 19.4652 20.9812 19.1619L17.4375 16.6341C17.1402 16.4222 16.7904 16.3101 16.4252 16.3101L8.63108 16.3101C7.25909 16.3101 6.14319 15.1937 6.14319 13.8218L6.14319 12.5997L13.3688 12.5997C15.4515 12.5997 17.1458 10.9055 17.1458 8.82277L17.1458 4.99898L19.5121 4.99898C20.884 4.99898 21.9999 6.11531 21.9999 7.4873L21.9999 7.4873Z" id="Shape" fill="#F6AB2F" fill-rule="evenodd" stroke="none" />
          </g>
        </g>
      </g>
    </g>
  </g>
</svg>