<?xml version="1.0" encoding="utf-8"?>
<svg width="16px" height="20px" viewBox="0 0 16 20" version="1.1" xmlns:xlink="http://www.w3.org/1999/xlink" xmlns="http://www.w3.org/2000/svg">
  <defs>
    <path d="M10.714 8C10.32 8 10 7.619 10 7.15L10 3.978L13.742 8L10.714 8ZM10 15L9 15L9 16C9 16.552 8.553 17 8 17C7.447 17 7 16.552 7 16L7 15L6 15C5.447 15 5 14.552 5 14C5 13.448 5.447 13 6 13L7 13L7 12C7 11.448 7.447 11 8 11C8.553 11 9 11.448 9 12L9 13L10 13C10.553 13 11 13.448 11 14C11 14.552 10.553 15 10 15L10 15ZM15.74 7.328L11.296 2.328C11.107 2.119 10.838 2 10.556 2L2.556 2C1.147 2 0 3.122 0 4.5L0 19.5C0 20.878 1.147 22 2.556 22L13.444 22C14.854 22 16 20.878 16 19.5L16 8C16 7.751 15.907 7.512 15.74 7.328L15.74 7.328Z" id="path_1" />
    <clipPath id="mask_1">
      <use xlink:href="#path_1" />
    </clipPath>
  </defs>
  <path d="M10.714 8C10.32 8 10 7.619 10 7.15L10 3.978L13.742 8L10.714 8ZM10 15L9 15L9 16C9 16.552 8.553 17 8 17C7.447 17 7 16.552 7 16L7 15L6 15C5.447 15 5 14.552 5 14C5 13.448 5.447 13 6 13L7 13L7 12C7 11.448 7.447 11 8 11C8.553 11 9 11.448 9 12L9 13L10 13C10.553 13 11 13.448 11 14C11 14.552 10.553 15 10 15L10 15ZM15.74 7.328L11.296 2.328C11.107 2.119 10.838 2 10.556 2L2.556 2C1.147 2 0 3.122 0 4.5L0 19.5C0 20.878 1.147 22 2.556 22L13.444 22C14.854 22 16 20.878 16 19.5L16 8C16 7.751 15.907 7.512 15.74 7.328L15.74 7.328Z" id="icon--document-plus" fill="#82B6F8" fill-rule="evenodd" stroke="none" />
</svg>