<?xml version="1.0" encoding="utf-8"?>
<svg width="79px" height="93px" viewBox="0 0 79 93" version="1.1" xmlns:xlink="http://www.w3.org/1999/xlink" xmlns="http://www.w3.org/2000/svg">
  <g id="graphic--upload-document">
    <path d="M52.7385 3.93491e-15L1.79008 3.93491e-15C0.8019 0.00110025 0.0010943 0.806261 0 1.79981L0 71.0235C0.00111853 72.017 0.80191 72.8222 1.79008 72.8233L52.7385 72.8233C53.7267 72.8221 54.5275 72.017 54.5286 71.0235L54.5286 1.79981C54.5275 0.806271 53.7267 0.00112461 52.7385 3.93491e-15Z" id="Path" fill="#D3DBEB" fill-rule="evenodd" stroke="none" />
    <path d="M3.23166 2.0043C2.53842 2.01601 1.98541 2.5844 1.99525 3.2751L1.99525 68.8801C1.98541 69.5708 2.53842 70.1391 3.23166 70.1509L51.2973 70.1509C51.9905 70.1391 52.5435 69.5708 52.5337 68.8801L52.5337 3.2751C52.5435 2.5844 51.9905 2.01601 51.2973 2.0043L3.23166 2.0043Z" id="Path" fill="#FFFFFF" fill-rule="evenodd" stroke="none" />
    <path d="M6.14745 5.34485C5.69107 5.34485 5.31982 5.75585 5.31982 6.26111L5.31982 15.1182C5.31982 15.6235 5.69107 16.0345 6.14745 16.0345L49.0461 16.0345C49.5024 16.0345 49.8737 15.6235 49.8737 15.1182L49.8737 6.26111C49.8737 5.75585 49.5024 5.34485 49.0461 5.34485L6.14745 5.34485Z" id="Path" fill="#E9EDF5" fill-rule="evenodd" stroke="none" />
    <path d="M6.14752 20.7112C5.68413 20.7185 5.31393 21.1062 5.3199 21.5779L5.3199 41.2238C5.31393 41.6955 5.68413 42.0832 6.14752 42.0905L49.046 42.0905C49.5094 42.0832 49.8796 41.6955 49.8736 41.2238L49.8736 21.5779C49.8796 21.1062 49.5094 20.7185 49.046 20.7112L6.14752 20.7112Z" id="Path" fill="#E9EDF5" fill-rule="evenodd" stroke="none" />
    <path d="M10.6396 7.34915L44.5538 7.34915L44.5538 9.35346L10.6396 9.35346L10.6396 7.34915Z" id="Rectangle" fill="#FFFFFF" fill-rule="evenodd" stroke="none" />
    <path d="M10.6396 11.2242L44.5538 11.2242L44.5538 11.8923L10.6396 11.8923L10.6396 11.2242Z" id="Rectangle" fill="#FFFFFF" fill-rule="evenodd" stroke="none" />
    <path d="M10.6396 13.3621L44.5538 13.3621L44.5538 14.0302L10.6396 14.0302L10.6396 13.3621Z" id="Rectangle" fill="#FFFFFF" fill-rule="evenodd" stroke="none" />
    <path d="M30.4833 42.0905L46.048 42.0905C46.2506 42.0905 46.4333 41.965 46.5108 41.7725C46.5884 41.58 46.5456 41.3585 46.4023 41.2111L36.4407 30.969C36.2449 30.7682 35.9279 30.7682 35.7321 30.969L33.255 33.516C33.0579 33.7186 32.7906 33.8325 32.5119 33.8325C32.2331 33.8325 31.9658 33.7186 31.7688 33.516L24.0099 25.5386C23.814 25.3377 23.4971 25.3377 23.3012 25.5386L8.1267 41.1404C7.98343 41.2878 7.94059 41.5094 8.01814 41.7018C8.0957 41.8943 8.27838 42.0198 8.48102 42.0199L30.5033 42.0199L30.4833 42.0905Z" id="Path" fill="#FFFFFF" fill-rule="evenodd" stroke="none" />
    <path d="M11.9696 27.3923C13.0713 27.3923 13.9645 26.4949 13.9645 25.3879C13.9645 24.281 13.0713 23.3836 11.9696 23.3836C10.8678 23.3836 9.97461 24.281 9.97461 25.3879C9.97461 26.4949 10.8678 27.3923 11.9696 27.3923Z" id="Oval" fill="#FFFFFF" fill-rule="evenodd" stroke="none" />
    <path d="M6.14752 46.0991C5.68413 46.1064 5.31393 46.4941 5.3199 46.9659L5.3199 66.6117C5.31393 67.0835 5.68413 67.4711 6.14752 67.4784L49.046 67.4784C49.5094 67.4711 49.8796 67.0835 49.8736 66.6117L49.8736 46.9659C49.8796 46.4941 49.5094 46.1064 49.046 46.0991L6.14752 46.0991Z" id="Path" fill="#E9EDF5" fill-rule="evenodd" stroke="none" />
    <path d="M30.4833 67.4784L46.048 67.4784C46.2506 67.4784 46.4333 67.3529 46.5108 67.1604C46.5884 66.9679 46.5456 66.7463 46.4023 66.599L36.4407 56.3569C36.2449 56.1561 35.928 56.1561 35.7321 56.3569L33.255 58.9038C33.0579 59.1065 32.7906 59.2204 32.5118 59.2204C32.2331 59.2204 31.9657 59.1065 31.7687 58.9038L24.0099 50.9264C23.814 50.7257 23.4971 50.7257 23.3012 50.9264L8.12669 66.5283C7.98343 66.6756 7.94059 66.8972 8.01814 67.0897C8.09569 67.2822 8.27836 67.4077 8.48101 67.4078L30.5033 67.4078L30.4833 67.4784Z" id="Path" fill="#FFFFFF" fill-rule="evenodd" stroke="none" />
    <path d="M11.9696 52.7802C13.0713 52.7802 13.9645 51.8828 13.9645 50.7759C13.9645 49.6689 13.0713 48.7715 11.9696 48.7715C10.8678 48.7715 9.97461 49.6689 9.97461 50.7759C9.97461 51.8828 10.8678 52.7802 11.9696 52.7802Z" id="Oval" fill="#FFFFFF" fill-rule="evenodd" stroke="none" />
    <path d="M19.8845 16.0345C19.1863 16.0353 18.6204 16.6013 18.6196 17.2998L18.6196 87.5925C18.6204 88.291 19.1862 88.857 19.8845 88.8578L71.8834 88.8578C72.5816 88.857 73.1475 88.291 73.1482 87.5925L73.1482 17.2998C73.1475 16.6013 72.5816 16.0353 71.8834 16.0345L19.8845 16.0345Z" id="Path" fill="#D3DBEB" fill-rule="evenodd" stroke="none" />
    <path d="M21.8513 18.0388C21.1581 18.0506 20.605 18.6246 20.6149 19.322L20.6149 85.5702C20.605 86.2677 21.1581 86.8416 21.8513 86.8534L69.9169 86.8534C70.6102 86.8416 71.1632 86.2677 71.1533 85.5702L71.1533 19.322C71.1632 18.6246 70.6102 18.0506 69.9169 18.0388L21.8513 18.0388Z" id="Path" fill="#FFFFFF" fill-rule="evenodd" stroke="none" />
    <path d="M28.4852 27.3923C28.1783 27.3926 27.9296 27.6194 27.9292 27.8992L27.9292 30.2259C27.9296 30.5057 28.1783 30.7325 28.4852 30.7328L61.2874 30.7328C61.5943 30.7325 61.843 30.5057 61.8433 30.2259L61.8433 27.8992C61.843 27.6194 61.5943 27.3926 61.2874 27.3923L28.4852 27.3923Z" id="Path" fill="#0676ED" fill-rule="evenodd" stroke="none" />
    <path d="M28.7316 36.0776C28.6558 36.0777 28.5943 36.1429 28.5942 36.2233L28.5942 37.268C28.5943 37.3485 28.6558 37.4137 28.7316 37.4138L61.706 37.4138C61.7818 37.4137 61.8433 37.3485 61.8434 37.268L61.8434 36.2233C61.8433 36.1429 61.7818 36.0777 61.706 36.0776L28.7316 36.0776Z" id="Path" fill="#EAF0FB" fill-rule="evenodd" stroke="none" />
    <path d="M28.7316 39.4181C28.6558 39.4182 28.5943 39.4834 28.5942 39.5639L28.5942 40.6086C28.5943 40.689 28.6558 40.7542 28.7316 40.7543L61.706 40.7543C61.7818 40.7542 61.8433 40.689 61.8434 40.6086L61.8434 39.5639C61.8433 39.4834 61.7818 39.4182 61.706 39.4181L28.7316 39.4181Z" id="Path" fill="#EAF0FB" fill-rule="evenodd" stroke="none" />
    <path d="M28.7316 42.7586C28.6558 42.7587 28.5943 42.8239 28.5942 42.9044L28.5942 43.949C28.5943 44.0295 28.6558 44.0947 28.7316 44.0948L61.706 44.0948C61.7818 44.0947 61.8433 44.0295 61.8434 43.949L61.8434 42.9044C61.8433 42.8239 61.7818 42.7587 61.706 42.7586L28.7316 42.7586Z" id="Path" fill="#EAF0FB" fill-rule="evenodd" stroke="none" />
    <path d="M28.7316 48.7715C28.6558 48.7716 28.5943 48.8369 28.5942 48.9173L28.5942 49.962C28.5943 50.0424 28.6558 50.1077 28.7316 50.1078L61.706 50.1078C61.7818 50.1077 61.8433 50.0425 61.8434 49.962L61.8434 48.9173C61.8433 48.8368 61.7818 48.7716 61.706 48.7715L28.7316 48.7715Z" id="Path" fill="#EAF0FB" fill-rule="evenodd" stroke="none" />
    <path d="M28.7316 52.1121C28.6558 52.1122 28.5943 52.1774 28.5942 52.2578L28.5942 53.3025C28.5943 53.383 28.6558 53.4482 28.7316 53.4483L61.706 53.4483C61.7818 53.4482 61.8433 53.383 61.8434 53.3025L61.8434 52.2578C61.8433 52.1774 61.7818 52.1121 61.706 52.1121L28.7316 52.1121Z" id="Path" fill="#EAF0FB" fill-rule="evenodd" stroke="none" />
    <path d="M28.7316 55.4526C28.6558 55.4527 28.5943 55.5179 28.5942 55.5984L28.5942 56.643C28.5943 56.7235 28.6558 56.7887 28.7316 56.7888L61.706 56.7888C61.7819 56.7888 61.8433 56.7235 61.8434 56.643L61.8434 55.5984C61.8433 55.5179 61.7819 55.4527 61.706 55.4526L28.7316 55.4526Z" id="Path" fill="#EAF0FB" fill-rule="evenodd" stroke="none" />
    <path d="M28.7316 58.7931C28.6558 58.7932 28.5943 58.8584 28.5942 58.9389L28.5942 59.9835C28.5943 60.064 28.6558 60.1292 28.7316 60.1293L61.706 60.1293C61.7819 60.1292 61.8433 60.064 61.8434 59.9835L61.8434 58.9389C61.8433 58.8584 61.7819 58.7931 61.706 58.7931L28.7316 58.7931Z" id="Path" fill="#EAF0FB" fill-rule="evenodd" stroke="none" />
    <path d="M28.7316 62.1336C28.6558 62.1337 28.5943 62.1989 28.5942 62.2794L28.5942 63.324C28.5943 63.4045 28.6558 63.4697 28.7316 63.4698L61.706 63.4698C61.7819 63.4698 61.8433 63.4045 61.8434 63.324L61.8434 62.2794C61.8433 62.1989 61.7819 62.1337 61.706 62.1336L28.7316 62.1336Z" id="Path" fill="#EAF0FB" fill-rule="evenodd" stroke="none" />
    <path d="M28.7316 65.4742C28.6558 65.4742 28.5943 65.5394 28.5942 65.6199L28.5942 66.6646C28.5943 66.7451 28.6558 66.8103 28.7316 66.8104L61.706 66.8104C61.7819 66.8103 61.8433 66.7451 61.8434 66.6646L61.8434 65.6199C61.8433 65.5394 61.7819 65.4742 61.706 65.4742L28.7316 65.4742Z" id="Path" fill="#EAF0FB" fill-rule="evenodd" stroke="none" />
    <path d="M28.7316 68.8146C28.6558 68.8147 28.5943 68.8799 28.5942 68.9604L28.5942 70.0051C28.5943 70.0855 28.6558 70.1508 28.7316 70.1508L61.706 70.1508C61.7819 70.1508 61.8433 70.0856 61.8434 70.0051L61.8434 68.9604C61.8433 68.8799 61.7819 68.8147 61.706 68.8146L28.7316 68.8146Z" id="Path" fill="#EAF0FB" fill-rule="evenodd" stroke="none" />
    <path d="M28.7316 72.1552C28.6558 72.1553 28.5943 72.2205 28.5942 72.3009L28.5942 73.3456C28.5943 73.4261 28.6558 73.4913 28.7316 73.4914L61.706 73.4914C61.7819 73.4913 61.8433 73.4261 61.8434 73.3456L61.8434 72.3009C61.8433 72.2205 61.7819 72.1552 61.706 72.1552L28.7316 72.1552Z" id="Path" fill="#EAF0FB" fill-rule="evenodd" stroke="none" />
    <path d="M28.7316 75.4957C28.6558 75.4958 28.5943 75.561 28.5942 75.6415L28.5942 76.6862C28.5943 76.7666 28.6558 76.8318 28.7316 76.8319L61.706 76.8319C61.7819 76.8319 61.8433 76.7666 61.8434 76.6862L61.8434 75.6415C61.8433 75.561 61.7819 75.4958 61.706 75.4957L28.7316 75.4957Z" id="Path" fill="#EAF0FB" fill-rule="evenodd" stroke="none" />
    <path d="M69.4244 93C74.7129 93 79.0002 88.6927 79.0002 83.3793C79.0002 78.0659 74.7129 73.7586 69.4244 73.7586C64.1358 73.7586 59.8486 78.0659 59.8486 83.3793C59.8486 88.6927 64.1358 93 69.4244 93Z" id="Oval" fill="#0676ED" fill-rule="evenodd" stroke="none" />
    <path d="M67.3412 87.6551L63.8384 83.7305L65.8753 82.3496L67.5339 84.208L73.3047 78.8362L75.0101 80.6006L67.3412 87.6551L67.3412 87.6551Z" id="Path" fill="#FFFFFF" fill-rule="evenodd" stroke="none" />
  </g>
</svg>