<?xml version="1.0" encoding="utf-8"?>
<svg width="16px" height="16px" viewBox="0 0 16 16" version="1.1" xmlns:xlink="http://www.w3.org/1999/xlink" xmlns="http://www.w3.org/2000/svg">
  <defs>
    <path d="M0 0L16 0L16 16L0 16L0 0Z" id="path_1" />
    <clipPath id="mask_1">
      <use xlink:href="#path_1" />
    </clipPath>
  </defs>
  <g id="notification-(1)">
    <path d="M0 0L16 0L16 16L0 16L0 0Z" id="Background" fill="none" fill-rule="evenodd" stroke="none" />
    <g clip-path="url(#mask_1)">
      <g id="Group" transform="translate(0.7272949 0)">
        <g id="Group">
          <path d="M13.8182 11.6364L13.0909 11.6364L13.0909 5.81819C13.0909 2.61019 10.4807 0 7.27275 0C4.06475 0 1.45456 2.61019 1.45456 5.81819L1.45456 11.6364L0.727281 11.6364C0.325094 11.6364 0 11.9615 0 12.3637C0 12.7658 0.325094 13.0909 0.727281 13.0909L1.45456 13.0909L4.36366 13.0909C4.36366 14.6953 5.66837 16 7.27275 16C8.87712 16 10.1818 14.6953 10.1818 13.0909L13.0909 13.0909L13.8182 13.0909C14.2204 13.0909 14.5455 12.7658 14.5455 12.3636C14.5455 11.9614 14.2204 11.6364 13.8182 11.6364L13.8182 11.6364ZM7.27289 14.5455C6.4707 14.5455 5.81836 13.8931 5.81836 13.0909L8.72745 13.0909C8.72742 13.8931 8.07508 14.5455 7.27289 14.5455L7.27289 14.5455ZM11.6362 11.6364L10.1817 11.6364L4.36347 11.6364L2.90894 11.6364L2.90894 5.81818C2.90894 3.41165 4.86603 1.45456 7.27256 1.45456C9.67909 1.45456 11.6362 3.41165 11.6362 5.81818L11.6362 11.6364L11.6362 11.6364Z" id="Shape" fill="#9EA0A5" fill-rule="evenodd" stroke="none" />
        </g>
      </g>
    </g>
  </g>
</svg>