<?xml version="1.0" encoding="utf-8"?>
<svg width="20px" height="19px" viewBox="0 0 20 19" version="1.1" xmlns:xlink="http://www.w3.org/1999/xlink" xmlns="http://www.w3.org/2000/svg">
  <defs>
    <path d="M10 2.99988C12.581 2.99988 14.855 4.66088 15.675 7.04488C18.114 7.37588 20 9.47188 20 11.9999C20 13.2209 19.556 14.3959 18.75 15.3089C18.552 15.5319 18.277 15.6469 18 15.6469C17.765 15.6469 17.529 15.5649 17.338 15.3969C16.925 15.0299 16.885 14.3989 17.251 13.9839C17.734 13.4379 18 12.7319 18 11.9999C18 10.3459 16.654 8.99988 15 8.99988L14.9 8.99988C14.424 8.99988 14.014 8.66388 13.92 8.19688C13.546 6.34488 11.898 4.99988 10 4.99988C8.103 4.99988 6.454 6.34488 6.081 8.19688C5.987 8.66388 5.576 8.99988 5.1 8.99988L5 8.99988C3.346 8.99988 2 10.3459 2 11.9999C2 12.7319 2.266 13.4379 2.75 13.9839C3.115 14.3989 3.076 15.0299 2.662 15.3969C2.248 15.7629 1.616 15.7219 1.251 15.3089C0.444 14.3959 0 13.2209 0 11.9999C0 9.47188 1.886 7.37588 4.325 7.04488C5.146 4.66088 7.42 2.99988 10 2.99988ZM9.30502 11.28C9.69902 10.904 10.322 10.907 10.707 11.293L13.707 14.293C14.098 14.684 14.098 15.316 13.707 15.707C13.512 15.902 13.256 16 13 16C12.744 16 12.488 15.902 12.293 15.707L11 14.414L11 20C11 20.553 10.552 21 10 21C9.44802 21 9.00002 20.553 9.00002 20L9.00002 14.356L7.69502 15.616C7.29802 16.001 6.66502 15.988 6.28102 15.591C5.89702 15.193 5.90802 14.561 6.30502 14.177L9.30502 11.28Z" id="path_1" />
    <clipPath id="mask_1">
      <use xlink:href="#path_1" />
    </clipPath>
  </defs>
  <path d="M10 2.99988C12.581 2.99988 14.855 4.66088 15.675 7.04488C18.114 7.37588 20 9.47188 20 11.9999C20 13.2209 19.556 14.3959 18.75 15.3089C18.552 15.5319 18.277 15.6469 18 15.6469C17.765 15.6469 17.529 15.5649 17.338 15.3969C16.925 15.0299 16.885 14.3989 17.251 13.9839C17.734 13.4379 18 12.7319 18 11.9999C18 10.3459 16.654 8.99988 15 8.99988L14.9 8.99988C14.424 8.99988 14.014 8.66388 13.92 8.19688C13.546 6.34488 11.898 4.99988 10 4.99988C8.103 4.99988 6.454 6.34488 6.081 8.19688C5.987 8.66388 5.576 8.99988 5.1 8.99988L5 8.99988C3.346 8.99988 2 10.3459 2 11.9999C2 12.7319 2.266 13.4379 2.75 13.9839C3.115 14.3989 3.076 15.0299 2.662 15.3969C2.248 15.7629 1.616 15.7219 1.251 15.3089C0.444 14.3959 0 13.2209 0 11.9999C0 9.47188 1.886 7.37588 4.325 7.04488C5.146 4.66088 7.42 2.99988 10 2.99988ZM9.30502 11.28C9.69902 10.904 10.322 10.907 10.707 11.293L13.707 14.293C14.098 14.684 14.098 15.316 13.707 15.707C13.512 15.902 13.256 16 13 16C12.744 16 12.488 15.902 12.293 15.707L11 14.414L11 20C11 20.553 10.552 21 10 21C9.44802 21 9.00002 20.553 9.00002 20L9.00002 14.356L7.69502 15.616C7.29802 16.001 6.66502 15.988 6.28102 15.591C5.89702 15.193 5.90802 14.561 6.30502 14.177L9.30502 11.28Z" id="icon--upload-cloud" fill="#82B6F8" fill-rule="evenodd" stroke="none" />
</svg>