<?xml version="1.0" encoding="utf-8"?>
<svg width="18px" height="18px" viewBox="0 0 18 18" version="1.1" xmlns:xlink="http://www.w3.org/1999/xlink" xmlns="http://www.w3.org/2000/svg">
  <defs>
    <path d="M0 0L18 0L18 18L0 18L0 0Z" id="path_1" />
    <clipPath id="mask_1">
      <use xlink:href="#path_1" />
    </clipPath>
  </defs>
  <g id="004-camera">
    <path d="M0 0L18 0L18 18L0 18L0 0Z" id="Background" fill="none" fill-rule="evenodd" stroke="none" />
    <g clip-path="url(#mask_1)">
      <path d="M13.7813 17.4551L4.21875 17.4551C1.89253 17.4551 0 15.5625 0 13.2363L0 7.57617C0 5.24995 1.89253 3.35742 4.21875 3.35742L6.02761 3.35742L6.30035 2.5149C6.68187 1.33661 7.77027 0.544922 9.00875 0.544922L12.4681 0.544922C13.7066 0.544922 14.795 1.33661 15.1765 2.5149L15.5669 3.74066C17.0358 4.41988 18 5.91838 18 7.57617L18 13.2363C18 15.5625 16.1075 17.4551 13.7813 17.4551L13.7813 17.4551ZM4.21875 4.76367C2.66794 4.76367 1.40625 6.02536 1.40625 7.57617L1.40625 13.2363C1.40625 14.7871 2.66794 16.0488 4.21875 16.0488L13.7813 16.0488C15.3321 16.0488 16.5938 14.7871 16.5938 13.2363L16.5938 7.57617C16.5938 6.3874 15.856 5.32287 14.7579 4.92725C14.5521 4.85314 14.3926 4.68749 14.3262 4.47912L13.8376 2.94479C13.6456 2.35178 13.0949 1.95117 12.4681 1.95117L9.00875 1.95117C8.38206 1.95117 7.8313 2.35178 7.63826 2.94803L7.20805 4.27711C7.11411 4.56718 6.84401 4.76367 6.5391 4.76367L4.21875 4.76367ZM12.9728 4.06055C12.9728 3.67221 12.658 3.35742 12.2697 3.35742L9.20747 3.35742C8.27457 3.39455 8.27527 4.72686 9.20747 4.76367L12.2697 4.76367C12.658 4.76367 12.9728 4.44888 12.9728 4.06055L12.9728 4.06055ZM2.74219 7.40039C2.74219 7.88579 3.13569 8.2793 3.62109 8.2793C4.78694 8.233 4.78663 6.56761 3.62109 6.52148C3.13569 6.52148 2.74219 6.91499 2.74219 7.40039L2.74219 7.40039ZM2.74219 10.2129C2.74219 10.6983 3.13569 11.0918 3.62109 11.0918C4.78694 11.0455 4.78663 9.38011 3.62109 9.33398C3.13569 9.33398 2.74219 9.72749 2.74219 10.2129L2.74219 10.2129ZM10.6875 14.7129C8.36128 14.7129 6.46875 12.8204 6.46875 10.4942C6.7005 4.89742 14.6753 4.89903 14.9063 10.4942C14.9063 12.8204 13.0137 14.7129 10.6875 14.7129L10.6875 14.7129ZM10.6875 7.68164C9.13669 7.68164 7.875 8.94333 7.875 10.4941C8.02948 14.2253 13.3461 14.2242 13.5 10.4941C13.5 8.94333 12.2383 7.68164 10.6875 7.68164L10.6875 7.68164Z" id="Shape" fill="#FFFFFF" fill-rule="evenodd" stroke="none" />
    </g>
  </g>
</svg>